<svg width="427" height="221" viewBox="0 0 427 221" fill="none" xmlns="http://www.w3.org/2000/svg"><path d="M2.79348 71.5184V36.5094V1.50038H33.3117L43.3176 34.5089H45.3188L55.3248 1.50038H85.843V71.5184H64.8305V38.5099H62.8293L52.8233 71.5184H35.8132L25.8072 38.5099H23.806V71.5184H2.79348Z" fill="#FF5151"/><path d="M143.02 62.4161C136.483 69.1511 128.278 72.5187 118.405 72.5187C108.533 72.5187 100.295 69.1511 93.6907 62.4161C87.1534 55.6143 83.8848 46.9788 83.8848 36.5094C83.8848 26.04 87.1534 17.4378 93.6907 10.7028C100.295 3.901 108.533 0.500128 118.405 0.500128C128.278 0.500128 136.483 3.901 143.02 10.7028C149.624 17.4378 152.926 26.04 152.926 36.5094C152.926 46.9788 149.624 55.6143 143.02 62.4161ZM108.7 47.8123C111.301 50.613 114.536 52.0134 118.405 52.0134C122.274 52.0134 125.476 50.613 128.011 47.8123C130.613 44.9449 131.913 41.1773 131.913 36.5094C131.913 31.8415 130.613 28.1072 128.011 25.3065C125.476 22.4391 122.274 21.0054 118.405 21.0054C114.536 21.0054 111.301 22.4391 108.7 25.3065C106.165 28.1072 104.897 31.8415 104.897 36.5094C104.897 41.1773 106.165 44.9449 108.7 47.8123Z" fill="#FF5151"/><path d="M147.423 47.5122H168.435C168.435 49.6461 169.236 51.3465 170.837 52.6135C172.438 53.8805 174.806 54.514 177.941 54.514C183.611 54.514 186.446 53.0136 186.446 50.0129C186.446 48.9459 185.946 48.079 184.945 47.4122C183.944 46.6787 182.11 46.0452 179.442 45.5117L168.435 43.5112C161.631 42.2442 156.662 39.9769 153.526 36.7094C150.458 33.4419 148.924 28.7074 148.924 22.5058C148.924 16.0375 151.392 10.6694 156.328 6.40165C161.331 2.13388 168.202 0 176.94 0C186.479 0 193.85 2.33393 199.053 7.0018C204.323 11.6697 206.958 17.8379 206.958 25.5066H185.946C185.946 23.4394 185.212 21.7723 183.744 20.5053C182.277 19.1716 180.176 18.5048 177.441 18.5048C172.438 18.5048 169.936 19.8384 169.936 22.5058C169.936 24.773 172.104 26.2734 176.44 27.0069L187.447 29.0075C194.517 30.2745 199.62 32.5417 202.756 35.8092C205.891 39.0767 207.458 43.8113 207.458 50.0129C207.458 56.8146 204.89 62.3494 199.754 66.6171C194.684 70.8849 187.413 73.0188 177.941 73.0188C168.202 73.0188 160.664 70.7182 155.327 66.117C150.058 61.4491 147.423 55.2475 147.423 47.5122Z" fill="#FF5151"/><path d="M248.936 42.5109H269.949C268.748 51.3799 265.146 58.6151 259.142 64.2165C253.139 69.7513 245.734 72.5187 236.929 72.5187C227.057 72.5187 218.818 69.1511 212.214 62.4161C205.677 55.6143 202.409 46.9788 202.409 36.5094C202.409 26.04 205.677 17.4378 212.214 10.7028C218.818 3.901 227.057 0.500128 236.929 0.500128C245.734 0.500128 253.139 3.26751 259.142 8.80226C265.146 14.2703 268.748 21.3388 269.949 30.0077H248.936C248.136 27.3404 246.702 25.1731 244.634 23.506C242.633 21.839 240.064 21.0054 236.929 21.0054C233.06 21.0054 229.825 22.4391 227.223 25.3065C224.689 28.1072 223.421 31.8415 223.421 36.5094C223.421 41.1773 224.689 44.9449 227.223 47.8123C229.825 50.613 233.06 52.0134 236.929 52.0134C240.064 52.0134 242.633 51.1798 244.634 49.5127C246.702 47.779 248.136 45.445 248.936 42.5109Z" fill="#FF5151"/><path d="M324.617 62.4161C318.079 69.1511 309.875 72.5187 300.002 72.5187C290.129 72.5187 281.891 69.1511 275.287 62.4161C268.75 55.6143 265.481 46.9788 265.481 36.5094C265.481 26.04 268.75 17.4378 275.287 10.7028C281.891 3.901 290.129 0.500128 300.002 0.500128C309.875 0.500128 318.079 3.901 324.617 10.7028C331.221 17.4378 334.523 26.04 334.523 36.5094C334.523 46.9788 331.221 55.6143 324.617 62.4161ZM290.296 47.8123C292.898 50.613 296.133 52.0134 300.002 52.0134C303.871 52.0134 307.073 50.613 309.608 47.8123C312.209 44.9449 313.51 41.1773 313.51 36.5094C313.51 31.8415 312.209 28.1072 309.608 25.3065C307.073 22.4391 303.871 21.0054 300.002 21.0054C296.133 21.0054 292.898 22.4391 290.296 25.3065C287.761 28.1072 286.494 31.8415 286.494 36.5094C286.494 41.1773 287.761 44.9449 290.296 47.8123Z" fill="#FF5151"/><path d="M344.028 71.5184L327.018 1.50038H349.531L356.536 32.5084H358.537L366.041 1.50038H387.054L394.558 32.5084H396.56L403.564 1.50038H426.077L409.067 71.5184H385.553L377.548 39.01H375.547L367.542 71.5184H344.028Z" fill="#FF5151"/><path d="M46.8197 116.53H67.8323C66.6316 125.399 63.0294 132.634 57.0258 138.236C51.0222 143.77 43.6178 146.538 34.8126 146.538C24.94 146.538 16.7018 143.17 10.0978 136.435C3.56061 129.633 0.291992 120.998 0.291992 110.528C0.291992 100.059 3.56061 91.4569 10.0978 84.7218C16.7018 77.92 24.94 74.5192 34.8126 74.5192C43.6178 74.5192 51.0222 77.2865 57.0258 82.8213C63.0294 88.2894 66.6316 95.3579 67.8323 104.027H46.8197C46.0193 101.359 44.5851 99.1922 42.5172 97.5251C40.516 95.858 37.9478 95.0244 34.8126 95.0244C30.9436 95.0244 27.7083 96.4581 25.1068 99.3255C22.5719 102.126 21.3045 105.861 21.3045 110.528C21.3045 115.196 22.5719 118.964 25.1068 121.831C27.7083 124.632 30.9436 126.032 34.8126 126.032C37.9478 126.032 40.516 125.199 42.5172 123.532C44.5851 121.798 46.0193 119.464 46.8197 116.53Z" fill="#FF5151"/><path d="M65.8662 145.537V75.5194H86.8788V145.537H65.8662Z" fill="#FF5151"/><path d="M101.419 145.537V96.0247H83.9083V75.5194H139.942V96.0247H122.431V145.537H101.419Z" fill="#FF5151"/><path d="M154.411 145.537V124.532L129.396 75.5194H152.41L163.917 99.5256H165.918L177.425 75.5194H200.439L175.424 124.532V145.537H154.411Z" fill="#FF5151"/><path d="M2.79346 219.556V149.538H23.806V173.545H42.8173V149.538H63.8299V219.556H42.8173V195.05H23.806V219.556H2.79346Z" fill="#59D9BA"/><path d="M57.7989 219.556L80.3123 149.538H109.33L131.843 219.556H109.33L106.328 209.054H83.3141L80.3123 219.556H57.7989ZM88.3171 191.049H101.325L95.8216 172.044H93.8204L88.3171 191.049Z" fill="#59D9BA"/><path d="M167.884 190.549H188.897C187.696 199.418 184.094 206.653 178.09 212.254C172.087 217.789 164.682 220.557 155.877 220.557C146.004 220.557 137.766 217.189 131.162 210.454C124.625 203.652 121.356 195.017 121.356 184.547C121.356 174.078 124.625 165.476 131.162 158.741C137.766 151.939 146.004 148.538 155.877 148.538C164.682 148.538 172.087 151.305 178.09 156.84C184.094 162.308 187.696 169.377 188.897 178.046H167.884C167.084 175.378 165.649 173.211 163.582 171.544C161.58 169.877 159.012 169.043 155.877 169.043C152.008 169.043 148.773 170.477 146.171 173.344C143.636 176.145 142.369 179.879 142.369 184.547C142.369 189.215 143.636 192.983 146.171 195.85C148.773 198.651 152.008 200.051 155.877 200.051C159.012 200.051 161.58 199.218 163.582 197.551C165.649 195.817 167.084 193.483 167.884 190.549Z" fill="#59D9BA"/><path d="M186.931 219.556V149.538H207.943V178.046L222.952 149.538H246.966L227.955 184.047L248.968 219.556H224.953L207.943 189.549V219.556H186.931Z" fill="#59D9BA"/></svg>